<svg width="38" height="38" viewBox="0 0 38 38" fill="none" xmlns="http://www.w3.org/2000/svg">
<g id="icons8_rabbit 1">
<path id="Vector" d="M9.89429 3.3661C9.58415 3.3722 9.28266 3.39056 8.99284 3.42176C7.69141 3.56202 6.75438 4.59618 6.56063 5.69317C6.36687 6.79016 6.88976 8.07852 8.06046 8.66192C10.4511 9.85304 14.6149 11.2263 22.1172 12.6032C21.9773 13.1032 21.5323 13.4583 20.9792 13.4583H17.8125H16.2292C9.05019 13.4583 3.16667 19.3418 3.16667 26.5208C3.16667 26.7007 3.18257 26.8769 3.19295 27.0543C2.2589 27.3739 1.58333 28.2492 1.58333 29.2916C1.58333 30.6034 2.64654 31.6666 3.95833 31.6666C4.24486 31.6666 4.47432 31.6081 4.6696 31.5151C6.07552 33.6456 8.35157 35.1468 10.9844 35.5229C11.1401 35.592 11.3088 35.6268 11.4792 35.625H12.2708H24.1366H30.4792C31.9952 35.625 33.25 34.3701 33.25 32.8541C33.25 31.5987 32.711 30.4523 31.8538 29.6581C31.8347 29.6404 31.8151 29.6234 31.795 29.6071L29.1541 27.4686C27.6149 26.2211 27.3715 23.981 28.6268 22.4651C30.2603 20.4925 31.1253 18.6104 31.4502 17.8094C32.3338 17.5322 33.168 17.1203 33.901 16.5956C35.315 15.5833 36.4167 14.0764 36.4167 12.2708C36.4167 10.4652 35.315 8.95827 33.901 7.94602C32.4869 6.93376 30.7011 6.3333 28.8958 6.3333C27.2027 6.3333 25.6223 6.90176 24.4164 7.8486C22.6159 6.62138 20.0133 5.50846 17.2837 4.66802C14.6969 3.87156 12.0653 3.3234 9.89429 3.3661ZM9.92212 5.74574C11.6243 5.73001 14.159 6.19098 16.5848 6.93788C19.0091 7.68431 21.3834 8.72405 22.8563 9.65923C22.7464 9.8566 22.649 10.0601 22.564 10.27C15.1735 8.91417 11.1728 7.55885 9.11963 6.53586C8.8685 6.41072 8.86645 6.28756 8.89852 6.10601C8.93051 5.92489 8.97027 5.81312 9.24642 5.78285C9.45287 5.76062 9.67895 5.74799 9.92212 5.74574ZM28.8958 8.7083C30.1511 8.7083 31.5312 9.1704 32.5186 9.87725C33.5061 10.5841 34.0417 11.4528 34.0417 12.2708C34.0417 13.0888 33.5061 13.9575 32.5186 14.6644C31.5312 15.3712 30.1511 15.8333 28.8958 15.8333H28.1042C27.9468 15.8311 27.7906 15.8602 27.6445 15.9188C27.4985 15.9775 27.3656 16.0646 27.2536 16.1751C27.1415 16.2856 27.0525 16.4173 26.9918 16.5624C26.931 16.7076 26.8998 16.8634 26.8998 17.0208C26.8998 17.1782 26.931 17.334 26.9918 17.4792C27.0525 17.6243 27.1415 17.756 27.2536 17.8665C27.3656 17.977 27.4985 18.0641 27.6445 18.1228C27.7906 18.1815 27.9468 18.2105 28.1042 18.2083H28.6376C28.2315 18.9697 27.6419 19.9302 26.7976 20.9498C24.7057 23.476 25.121 27.2564 27.6589 29.3133L30.241 31.4038C30.6316 31.7668 30.875 32.2742 30.875 32.8541C30.875 33.0877 30.7127 33.25 30.4792 33.25H26.8749C26.895 33.1167 26.9167 32.9832 26.9167 32.8449C26.9167 31.4677 25.9653 30.4522 24.888 29.7741C23.8107 29.0959 22.4838 28.6638 21.1137 28.5077C20.5754 28.4463 19.9334 28.4545 19.2984 28.466C19.1242 28.4691 19.0572 28.4711 18.8933 28.4752C18.3091 24.9089 15.2053 22.1666 11.4792 22.1666H10.6875C10.5301 22.1644 10.3739 22.1935 10.2279 22.2522C10.0819 22.3108 9.94895 22.398 9.83689 22.5084C9.72483 22.6189 9.63584 22.7506 9.5751 22.8958C9.51436 23.041 9.48309 23.1968 9.48309 23.3541C9.48309 23.5115 9.51436 23.6673 9.5751 23.8125C9.63584 23.9577 9.72483 24.0893 9.83689 24.1998C9.94895 24.3103 10.0819 24.3974 10.2279 24.4561C10.3739 24.5148 10.5301 24.5439 10.6875 24.5416H11.4792C14.3083 24.5416 16.5782 26.7901 16.6204 29.6086C16.6083 29.7897 16.6379 29.9711 16.7069 30.139C16.709 30.1447 16.711 30.1503 16.7131 30.156C16.7186 30.1684 16.7243 30.1808 16.7301 30.1931C16.8398 30.4352 17.0276 30.6335 17.2633 30.7563C17.4991 30.8791 17.7692 30.9193 18.0305 30.8703C18.3794 30.8654 18.8196 30.8504 19.3417 30.841C19.9469 30.83 20.5984 30.8391 20.8446 30.8672C21.8781 30.985 22.9264 31.3455 23.6232 31.7842C24.32 32.2228 24.5417 32.6474 24.5417 32.8449C24.5417 33.0817 24.3741 33.25 24.1366 33.25H12.2708C8.54019 33.25 5.54167 30.2514 5.54167 26.5208C5.54167 20.6373 10.3456 15.8333 16.2292 15.8333H17.8125H20.9792C22.9326 15.8333 24.5417 14.2242 24.5417 12.2708C24.5417 10.3959 26.3853 8.7083 28.8958 8.7083ZM29.6875 10.2916C29.3726 10.2916 29.0705 10.4167 28.8478 10.6394C28.6251 10.8621 28.5 11.1642 28.5 11.4791C28.5 11.7941 28.6251 12.0961 28.8478 12.3188C29.0705 12.5415 29.3726 12.6666 29.6875 12.6666C30.0024 12.6666 30.3045 12.5415 30.5272 12.3188C30.7499 12.0961 30.875 11.7941 30.875 11.4791C30.875 11.1642 30.7499 10.8621 30.5272 10.6394C30.3045 10.4167 30.0024 10.2916 29.6875 10.2916Z" fill="white"/>
</g>
</svg>
